:version 1.10
:name ASF
:units
  mass 1
  length 1
  angle deg
:documentation
  ASF file generated by Kaydara
:root
  axis xyz
  order  tx ty tz rx ry rz
  position 0 0 0
  orientation 0 0 0
:bonedata
  begin
    id 1
    name lfemurDummy
    direction 0.61522 -0.761478 0.204097
    length 5.68318
    axis 0 -0 0 xyz
  end
  begin
    id 2
    name lfemur
    direction 0.34202 -0.939693 -5.84747e-008
    length 16.9147
    axis 0 -0 20 xyz
    dof rx ry rz
    limits( -inf , inf )
( -inf , inf )
( -inf , inf )

  end
  begin
    id 3
    name ltibia
    direction 0.34202 -0.939693 1.20839e-009
    length 18.0532
    axis 0 -0 20 xyz
    dof rz ry rx
    limits( -inf , inf )
( -inf , inf )
( -inf , inf )

  end
  begin
    id 4
    name lfoot
    direction 0.0841971 -0.23133 0.969225
    length 5.23822
    axis -90 7.62852e-016 20 xyz
    dof ry rx rz
    limits( -inf , inf )
( -inf , inf )
( -inf , inf )

  end
  begin
    id 5
    name ltoes
    direction 0 0 0
    length 0
    axis 0 0 0 xyz
    dof rz ry rx
    limits( -inf , inf )
( -inf , inf )
( -inf , inf )

  end
  begin
    id 6
    name rfemurDummy
    direction -0.625247 -0.75382 0.202044
    length 5.74091
    axis 0 -0 0 xyz
  end
  begin
    id 7
    name rfemur
    direction -0.34202 -0.939693 -1.47013e-008
    length 16.4922
    axis 0 -0 -20 xyz
    dof rx ry rz
    limits( -inf , inf )
( -inf , inf )
( -inf , inf )

  end
  begin
    id 8
    name rtibia
    direction -0.34202 -0.939693 -7.74345e-010
    length 18.2421
    axis 0 -0 -20 xyz
    dof rz ry rx
    limits( -inf , inf )
( -inf , inf )
( -inf , inf )

  end
  begin
    id 9
    name rfoot
    direction -0.124331 -0.341598 0.931586
    length 5.45787
    axis -90 -7.62852e-016 -20 xyz
    dof ry rx rz
    limits( -inf , inf )
( -inf , inf )
( -inf , inf )

  end
  begin
    id 10
    name rtoes
    direction 0 0 0
    length 0
    axis 0 0 0 xyz
    dof rz ry rx
    limits( -inf , inf )
( -inf , inf )
( -inf , inf )

  end
  begin
    id 11
    name lowerbackDummy
    direction 0 0 0
    length 0
    axis 0 -0 0 xyz
  end
  begin
    id 12
    name lowerback
    direction -0.0218484 0.994884 -0.0986304
    length 4.45607
    axis 0 -0 0 xyz
    dof rx ry rz
    limits( -inf , inf )
( -inf , inf )
( -inf , inf )

  end
  begin
    id 13
    name upperback
    direction -0.00973057 0.999717 -0.0217111
    length 4.47449
    axis 0 -0 0 xyz
    dof rx ry rz
    limits( -inf , inf )
( -inf , inf )
( -inf , inf )

  end
  begin
    id 14
    name thorax
    direction -0.000928171 0.999699 0.0245198
    length 4.50973
    axis 0 -0 0 xyz
    dof rx ry rz
    limits( -inf , inf )
( -inf , inf )
( -inf , inf )

  end
  begin
    id 15
    name rclavicle
    direction -0.9009 0.425937 -0.0834055
    length 7.28587
    axis 0 -0 0 xyz
    dof rx ry rz
    limits( -inf , inf )
( -inf , inf )
( -inf , inf )

  end
  begin
    id 16
    name rhumerus
    direction -1 -2.23604e-007 -1.42637e-007
    length 13.5704
    axis 180 30 90 xyz
    dof rx ry rz
    limits( -inf , inf )
( -inf , inf )
( -inf , inf )

  end
  begin
    id 17
    name rradius
    direction -1 5.68281e-008 -4.4952e-007
    length 8.06782
    axis 180 30 90 xyz
    dof rz ry rx
    limits( -inf , inf )
( -inf , inf )
( -inf , inf )

  end
  begin
    id 18
    name rwrist
    direction -1 1.51393e-007 1.38143e-007
    length 4.03391
    axis -90 -90 0 xyz
    dof rz rx ry
    limits( -inf , inf )
( -inf , inf )
( -inf , inf )

  end
  begin
    id 19
    name rthumb
    direction 0 0 0
    length 0
    axis 0 0 0 xyz
    dof ry rx rz
    limits( -inf , inf )
( -inf , inf )
( -inf , inf )

  end
  begin
    id 20
    name rhand
    direction -1 -3.34077e-007 -5.59631e-007
    length 1.29744
    axis -90 -90 0 xyz
    dof ry rx rz
    limits( -inf , inf )
( -inf , inf )
( -inf , inf )

  end
  begin
    id 21
    name rfingers
    direction 0 0 0
    length 0
    axis 0 0 0 xyz
    dof rz ry rx
    limits( -inf , inf )
( -inf , inf )
( -inf , inf )

  end
  begin
    id 22
    name lclavicle
    direction 0.940017 0.332249 -0.0773232
    length 8.29589
    axis 0 -0 0 xyz
    dof rx ry rz
    limits( -inf , inf )
( -inf , inf )
( -inf , inf )

  end
  begin
    id 23
    name lhumerus
    direction 1 7.41158e-008 -1.44768e-008
    length 12.0042
    axis 180 -30 -90 xyz
    dof rx ry rz
    limits( -inf , inf )
( -inf , inf )
( -inf , inf )

  end
  begin
    id 24
    name lradius
    direction 1 -1.32972e-007 3.10821e-007
    length 8.1902
    axis 180 -30 -90 xyz
    dof rz ry rx
    limits( -inf , inf )
( -inf , inf )
( -inf , inf )

  end
  begin
    id 25
    name lwrist
    direction 1 3.08957e-007 4.01394e-007
    length 4.09509
    axis -90 90 0 xyz
    dof rz rx ry
    limits( -inf , inf )
( -inf , inf )
( -inf , inf )

  end
  begin
    id 26
    name lthumb
    direction 0 0 0
    length 0
    axis 0 0 0 xyz
    dof ry rx rz
    limits( -inf , inf )
( -inf , inf )
( -inf , inf )

  end
  begin
    id 27
    name lhand
    direction 1 -1.64125e-007 -6.99514e-007
    length 1.37229
    axis -90 90 0 xyz
    dof ry rx rz
    limits( -inf , inf )
( -inf , inf )
( -inf , inf )

  end
  begin
    id 28
    name lfingers
    direction 0 0 0
    length 0
    axis 0 0 0 xyz
    dof rz ry rx
    limits( -inf , inf )
( -inf , inf )
( -inf , inf )

  end
  begin
    id 29
    name lowerneck
    direction -0.030798 0.998024 0.0547665
    length 3.93918
    axis 0 -0 0 xyz
    dof rx ry rz
    limits( -inf , inf )
( -inf , inf )
( -inf , inf )

  end
  begin
    id 30
    name upperneck
    direction 0.0531588 0.996611 -0.0627736
    length 3.95491
    axis 0 -0 0 xyz
    dof rx ry rz
    limits( -inf , inf )
( -inf , inf )
( -inf , inf )

  end
  begin
    id 31
    name head
    direction 0 0 0
    length 0
    axis 0 0 0 xyz
    dof rx ry rz
    limits( -inf , inf )
( -inf , inf )
( -inf , inf )

  end
:hierarchy
  begin
    root lfemurDummy rfemurDummy lowerbackDummy
    lfemurDummy lfemur
    lfemur ltibia
    ltibia lfoot
    lfoot ltoes
    rfemurDummy rfemur
    rfemur rtibia
    rtibia rfoot
    rfoot rtoes
    lowerbackDummy lowerback
    lowerback upperback
    upperback thorax
    thorax rclavicle lclavicle lowerneck
    rclavicle rhumerus
    rhumerus rradius
    rradius rwrist
    rwrist rthumb rhand
    rhand rfingers
    lclavicle lhumerus
    lhumerus lradius
    lradius lwrist
    lwrist lthumb lhand
    lhand lfingers
    lowerneck upperneck
    upperneck head
  end

:SAMPLES-PER-SECOND 30
:FULLY-SPECIFIED
:DEGREES
28
root  0.8833066685 37.64022166 3.764066546 162.5029907 -76.90699768 -160.0559998
lowerback  12.40699959 3.576159954 0.2485020012
upperback  2.977669954 4.498109818 -2.244800091
thorax  -3.609600067 2.153939962 -3.159430027
lowerneck  1.124160051 9.429989815 -4.047430038
upperneck  11.74699974 11.9364996 5.846199989
head  2.966530085 5.838580132 2.796289921
lclavicle  0 -9.442270133e-015 7.951389973e-016
lhumerus  -10.46119976 -3.005320072 73.54820251
lradius  2.982219532e-031 -1.890822757e-031 147.6239929
lwrist  -1.412450015e-030 1.765562519e-031 20.20879936
lhand  -1.496451383e-031 -27.76390076 20.11240005
lfingers  90 7.125020027 -90
lthumb  89.89689403 5.08795885 91.16245106
rclavicle  0 -9.442270133e-015 7.951389973e-016
rhumerus  5.071990013 17.0135994 -76.88339996
rradius  -2.861117104e-031 2.069505486e-031 144.1210022
rwrist  7.062250077e-031 -0 -13.69079971
rhand  -7.920061211e-032 -33.2840004 9.303460121
rfingers  -90 -7.125020027 -90
rthumb  -92.93752616 -24.25625642 -97.11982154
rfemur  1.796219945 20.1012001 10.98069954
rtibia  -0 0 39.61640167
rfoot  -0 -26.5447998 -10.56820011
rtoes  5.373923086 19.29304026 -105.8922705
lfemur  -31.05439949 12.70110035 -2.48307991
ltibia  -0 0 64.28710175
lfoot  4.653965717e-032 -18.48290062 3.007380009
ltoes  -4.250644065 -19.5611806 -102.515957
29
root  0.8785155814 37.49666589 3.769311004 159.2869873 -77.0490036 -156.6950073
lowerback  12.28390026 3.274199963 1.261180043
upperback  2.871710062 4.262969971 -1.839619994
thorax  -3.621799946 2.037909985 -3.264719963
lowerneck  1.054849982 9.512140274 -4.463469982
upperneck  11.71189976 12.08510017 5.629360199
head  2.948220015 5.891119957 2.796119928
lclavicle  0 -9.442270133e-015 7.951389973e-016
lhumerus  -12.27400017 -2.232130051 75.41989899
lradius  2.993093357e-031 -1.873562434e-031 147.9550018
lwrist  -7.062250077e-031 8.827812596e-032 20.16580009
lhand  -1.496451383e-031 -27.76390076 20.11240005
lfingers  90 7.125020027 -90
lthumb  89.89689403 5.08795885 91.16245106
rclavicle  0 -9.442270133e-015 7.951389973e-016
rhumerus  4.089900017 18.56710052 -77.16020203
rradius  -2.864076013e-031 2.065408586e-031 144.2030029
rwrist  7.062250077e-031 -3.531125038e-031 -12.91930008
rhand  -7.920061211e-032 -33.2840004 9.303460121
rfingers  -90 -7.125020027 -90
rthumb  -92.93752616 -24.25625642 -97.11982154
rfemur  1.820379972 18.96299934 11.55780029
rtibia  -0 0 39.66569901
rfoot  -0 -26.71660042 -10.92599964
rtoes  5.373923086 19.29304026 -105.8922705
lfemur  -30.45159912 12.13749981 -2.138979912
ltibia  -0 0 63.19309998
lfoot  4.731330408e-032 -21.10689926 5.660620213
ltoes  -4.250644065 -19.5611806 -102.515957
30
root  0.8705910735 37.39222129 3.781844312 155.3619995 -77.2990036 -152.605011
lowerback  12.1935997 2.976249933 2.235830069
upperback  2.768699884 4.027979851 -1.339370012
thorax  -3.662859917 1.919350028 -3.253299952
lowerneck  0.8841459751 9.516539574 -4.879109859
upperneck  11.85840034 12.13029957 5.382019997
head  3.018490076 5.888549805 2.80250001
lclavicle  0 -9.442270133e-015 7.951389973e-016
lhumerus  -14.01439953 -1.687180042 77.2940979
lradius  2.999939925e-031 -1.862580062e-031 148.1649933
lwrist  -7.062250077e-031 -0 19.87630081
lhand  -1.496451383e-031 -27.76390076 20.11240005
lfingers  90 7.125020027 -90
lthumb  89.89689403 5.08795885 91.16245106
rclavicle  0 -9.442270133e-015 7.951389973e-016
rhumerus  2.91531992 19.89889908 -77.30259705
rradius  -2.868610861e-031 2.059105574e-031 144.3289948
rwrist  1.412450015e-030 -0 -12.31729984
rhand  -7.920061211e-032 -33.2840004 9.303460121
rfingers  -90 -7.125020027 -90
rthumb  -92.93752616 -24.25625642 -97.11982154
rfemur  1.67197001 17.61529922 12.14340019
rtibia  -0 0 39.96870041
rfoot  -0 -26.44689941 -11.31169987
rtoes  5.373923086 19.29304026 -105.8922705
lfemur  -30.04030037 11.31569958 -1.584859967
ltibia  -0 0 62.13660049
lfoot  -0 -22.99440002 7.194990158
ltoes  -4.250644065 -19.5611806 -102.515957
31
root  0.8600556006 37.32911057 3.78262227 151.1270142 -77.69999695 -148.1560059
lowerback  11.99660015 2.723880053 2.905479908
upperback  2.714600086 3.808530092 -0.7738749981
thorax  -3.62142992 1.810420036 -2.997750044
lowerneck  0.6230379939 9.475549698 -5.082769871
upperneck  12.10719967 12.13099957 4.9447999
head  3.168740034 5.863349915 2.724839926
lclavicle  0 -9.442270133e-015 7.951389973e-016
lhumerus  -15.59980011 -1.144160032 78.93009949
lradius  3.00474145e-031 -1.854824212e-031 148.3130035
lwrist  -1.412450015e-030 -8.827812596e-032 19.8682003
lhand  -1.496451383e-031 -27.76390076 20.11240005
lfingers  90 7.125020027 -90
lthumb  89.89689403 5.08795885 91.16245106
rclavicle  0 -9.442270133e-015 7.951389973e-016
rhumerus  1.625349998 20.96069908 -77.42630005
rradius  -2.873347218e-031 2.052491121e-031 144.4609985
rwrist  0 -0 -11.79539967
rhand  -7.920061211e-032 -33.2840004 9.303460121
rfingers  -90 -7.125020027 -90
rthumb  -92.93752616 -24.25625642 -97.11982154
rfemur  1.438189983 16.53549957 12.68459988
rtibia  -0 0 40.4715004
rfoot  -0 -26.41909981 -10.57689953
rtoes  5.373923086 19.29304026 -105.8922705
lfemur  -29.89340019 10.38140011 -0.9642850161
ltibia  -0 0 61.27830124
lfoot  9.68146032e-032 -24.24099922 7.088500023
ltoes  -4.250644065 -19.5611806 -102.515957
32
root  0.8675133149 37.29466716 3.76955543 147.1900024 -78.28800201 -144.1170044
lowerback  11.94620037 2.571749926 3.257679939
upperback  2.737459898 3.668440104 -0.3508059978
thorax  -3.585400105 1.740280032 -2.730870008
lowerneck  0.4014970064 9.341950417 -5.040979862
upperneck  12.16889954 12.00809956 4.514070034
head  3.268209934 5.79090023 2.597249985
lclavicle  0 -9.442270133e-015 7.951389973e-016
lhumerus  -16.79840088 -0.9260470271 80.4571991
lradius  3.004255775e-031 -1.855610756e-031 148.2980042
lwrist  -7.062250077e-031 8.827812596e-032 20.16160011
lhand  -1.496451383e-031 -27.76390076 20.11240005
lfingers  90 7.125020027 -90
lthumb  89.89689403 5.08795885 91.16245106
rclavicle  0 -9.442270133e-015 7.951389973e-016
rhumerus  0.1140149981 21.72710037 -77.67379761
rradius  -2.873311688e-031 2.05254086e-031 144.4600067
rwrist  0 -1.765562519e-031 -10.91489983
rhand  -7.920061211e-032 -33.2840004 9.303460121
rfingers  -90 -7.125020027 -90
rthumb  -92.93752616 -24.25625642 -97.11982154
rfemur  1.202509999 15.43700027 12.97799969
rtibia  -0 0 41.08000183
rfoot  -0 -25.89889908 -9.961250305
rtoes  5.373923086 19.29304026 -105.8922705
lfemur  -29.91769981 9.463210106 -0.4708859921
ltibia  -0 0 60.7643013
lfoot  4.855371617e-032 -24.62190056 6.173900127
ltoes  -4.250644065 -19.5611806 -102.515957
33
root  0.8722266813 37.31444351 3.746310932 144.071991 -79.12999725 -140.9930115
lowerback  12.18939972 2.488470078 3.227129936
upperback  2.679389954 3.576450109 -0.0957653001
thorax  -3.804739952 1.689739943 -2.450500011
lowerneck  0.1494680047 9.14043045 -5.008409977
upperneck  12.35719967 11.77729988 4.248650074
head  3.411609888 5.66697979 2.531709909
lclavicle  0 -9.442270133e-015 7.951389973e-016
lhumerus  -17.75379944 -1.172410011 82.04100037
lradius  2.995673626e-031 -1.869434022e-031 148.0339966
lwrist  -1.412450015e-030 8.827812596e-032 20.33390045
lhand  -1.496451383e-031 -27.76390076 20.11240005
lfingers  90 7.125020027 -90
lthumb  89.89689403 5.08795885 91.16245106
rclavicle  0 -9.442270133e-015 7.951389973e-016
rhumerus  -1.793959975 22.36700058 -78.16480255
rradius  -2.866309196e-031 2.062308326e-031 144.2649994
rwrist  7.062250077e-031 -0 -9.466030121
rhand  -7.920061211e-032 -33.2840004 9.303460121
rfingers  -90 -7.125020027 -90
rthumb  -92.93752616 -24.25625642 -97.11982154
rfemur  0.9770900011 14.29850006 12.87520027
rtibia  -0 0 41.76869965
rfoot  -0 -24.9612999 -9.621569633
rtoes  5.373923086 19.29304026 -105.8922705
lfemur  -30.25239944 8.747630119 -0.367426008
ltibia  -0 0 60.68289948
lfoot  4.830792702e-032 -23.97789955 5.564630032
ltoes  -4.250644065 -19.5611806 -102.515957
